<?xml version="1.0" encoding="UTF-8" standalone="no"?>
<!-- Created with Inkscape (http://www.inkscape.org/) -->

<svg
   version="1.1"
   id="svg2"
   width="1000"
   height="666.66669"
   viewBox="0 0 1000 666.66669"
   sodipodi:docname="6057301.ai"
   xmlns:inkscape="http://www.inkscape.org/namespaces/inkscape"
   xmlns:sodipodi="http://sodipodi.sourceforge.net/DTD/sodipodi-0.dtd"
   xmlns="http://www.w3.org/2000/svg"
   xmlns:svg="http://www.w3.org/2000/svg">
  <defs
     id="defs6">
    <clipPath
       clipPathUnits="userSpaceOnUse"
       id="clipPath18">
      <path
         d="M 0,0 H 750 V 500 H 0 Z"
         id="path16" />
    </clipPath>
    <clipPath
       clipPathUnits="userSpaceOnUse"
       id="clipPath30">
      <path
         d="M 0,500 V 295.627 c 2.194,-0.958 4.433,-1.843 6.727,-2.655 v 0 c 123.948,-32.612 126.52,75.096 181.333,88.559 v 0 c 13.579,2.489 26.82,-0.762 40.075,-4.013 v 0 c 13.15,-3.224 26.314,-6.449 39.835,-4.068 v 0 c 32.845,6.294 49.387,39.624 76.18,56.251 v 0 c 10.78,6.759 22.72,9.729 35.43,9.049 v 0 c 26.36,-1.43 54,-16.1 80.06,-5.3 v 0 c 20.46,8.49 33.249,30.32 34.59,51.9 v 0 c 0.307,4.972 -0.027,9.872 -0.911,14.65 v 0 z"
         id="path28" />
    </clipPath>
    <clipPath
       clipPathUnits="userSpaceOnUse"
       id="clipPath86">
      <path
         d="M 0,0 H 750 V 500 H 0 Z"
         id="path84" />
    </clipPath>
    <clipPath
       clipPathUnits="userSpaceOnUse"
       id="clipPath138">
      <path
         d="m 488.185,84.528 c 0,-33.674 14.784,-63.896 38.216,-84.528 v 0 h 148.742 c 23.432,20.632 38.217,50.854 38.217,84.528 v 0 c 0,62.18 -50.408,112.587 -112.588,112.587 v 0 c -62.181,0 -112.587,-50.407 -112.587,-112.587"
         id="path136" />
    </clipPath>
    <clipPath
       clipPathUnits="userSpaceOnUse"
       id="clipPath170">
      <path
         d="M 0,0 H 750 V 500 H 0 Z"
         id="path168" />
    </clipPath>
    <clipPath
       clipPathUnits="userSpaceOnUse"
       id="clipPath186">
      <path
         d="M 0,500 H 750 V 0 H 0 Z"
         id="path184" />
    </clipPath>
  </defs>
  <sodipodi:namedview
     id="namedview4"
     pagecolor="#ffffff"
     bordercolor="#000000"
     borderopacity="0.25"
     inkscape:showpageshadow="2"
     inkscape:pageopacity="0.0"
     inkscape:pagecheckerboard="0"
     inkscape:deskcolor="#d1d1d1" />
  <g
     id="g8"
     inkscape:groupmode="layer"
     inkscape:label="6057301"
     transform="matrix(1.3333333,0,0,-1.3333333,0,666.66667)">
    <path
       d="M 0,0 H 750 V 500 H 0 Z"
       style="fill:#fff6ee;fill-opacity:1;fill-rule:nonzero;stroke:none"
       id="path10" />
    <g
       id="g12">
      <g
         id="g14"
         clip-path="url(#clipPath18)">
        <g
           id="g20"
           transform="translate(494.2305,485.3501)">
          <path
             d="m 0,0 c -1.341,-21.58 -14.131,-43.41 -34.591,-51.9 -26.059,-10.8 -53.699,3.87 -80.059,5.3 -12.71,0.68 -24.65,-2.29 -35.431,-9.05 -26.792,-16.626 -43.334,-49.955 -76.179,-56.25 -27.151,-4.78 -52.861,13.04 -79.91,8.08 -54.813,-13.462 -57.385,-121.17 -181.333,-88.559 -59.379,21.038 -85.339,91.854 -76.148,150.419 9.351,46.54 47.191,85.86 92.831,98.25 58.719,15.94 115.5,-19.07 174.15,-17.44 88.172,2.255 181.921,82.549 265.601,22.79 C -12.36,47.05 1.5,24.36 0,0"
             style="fill:#caceeb;fill-opacity:1;fill-rule:nonzero;stroke:none"
             id="path22" />
        </g>
      </g>
    </g>
    <g
       id="g24">
      <g
         id="g26"
         clip-path="url(#clipPath30)">
        <g
           id="g32"
           transform="translate(359.4399,398.1948)">
          <path
             d="m 0,0 0.36,-0.35 -1.19,-1.22 -0.36,0.35 c -9.25,9.01 -23.75,9.01 -33.01,0 -4.96,-4.83 -11.33,-7.24 -17.69,-7.24 -6.37,0 -12.73,2.41 -17.69,7.24 -9.26,9.01 -23.76,9.01 -33.02,0 -4.79,-4.67 -11.08,-7.24 -17.69,-7.24 -6.61,0 -12.89,2.57 -17.69,7.24 -9.26,9.02 -23.76,9.02 -33.01,0 -9.92,-9.66 -25.47,-9.66 -35.39,0 -9.25,9.01 -23.76,9.01 -33.01,0 -9.92,-9.66 -25.47,-9.66 -35.39,0 -9.25,9.01 -23.75,9.01 -33.01,0 -9.92,-9.66 -25.46,-9.66 -35.38,0 -9.26,9.01 -23.76,9.01 -33.02,0 l -0.35,-0.35 -1.19,1.22 0.36,0.35 c 9.92,9.66 25.46,9.66 35.38,0 9.26,-9.01 23.76,-9.01 33.02,0 9.92,9.66 25.46,9.66 35.38,0 9.26,-9.01 23.76,-9.01 33.01,0 9.92,9.66 25.47,9.66 35.39,0 9.25,-9.01 23.76,-9.01 33.01,0 9.92,9.66 25.47,9.66 35.39,0 9.25,-9.01 23.75,-9.01 33.01,0 9.92,9.66 25.46,9.66 35.38,0 9.26,-9.01 23.76,-9.01 33.02,0 9.91,9.66 25.46,9.66 35.38,0"
             style="fill:#fff6ee;fill-opacity:1;fill-rule:nonzero;stroke:none"
             id="path34" />
        </g>
        <g
           id="g36"
           transform="translate(359.4399,418.3652)">
          <path
             d="m 0,0 0.36,-0.35 -1.19,-1.22 -0.36,0.35 c -9.25,9.01 -23.75,9.01 -33.01,0 -9.92,-9.66 -25.46,-9.66 -35.38,0 -9.26,9.01 -23.76,9.01 -33.02,0 -4.79,-4.67 -11.08,-7.25 -17.69,-7.25 -6.61,0 -12.89,2.58 -17.69,7.25 -9.26,9.01 -23.76,9.01 -33.01,0 -4.96,-4.83 -11.33,-7.25 -17.7,-7.25 -6.36,0 -12.73,2.42 -17.69,7.25 -9.25,9.01 -23.75,9.01 -33.01,0 -9.92,-9.66 -25.47,-9.66 -35.39,0 -9.25,9.01 -23.75,9.01 -33.01,0 -9.92,-9.66 -25.46,-9.66 -35.38,0 -9.26,9.01 -23.76,9.01 -33.02,0 l -0.35,-0.35 -1.19,1.22 0.36,0.35 c 9.92,9.66 25.46,9.66 35.38,0 9.26,-9.02 23.76,-9.02 33.02,0 9.92,9.65 25.46,9.65 35.38,0 9.26,-9.02 23.76,-9.01 33.01,0 9.92,9.66 25.47,9.66 35.39,0 9.25,-9.02 23.76,-9.02 33.01,0 9.92,9.66 25.47,9.66 35.39,0 9.25,-9.02 23.75,-9.02 33.01,0 9.92,9.66 25.46,9.66 35.38,0 9.26,-9.02 23.76,-9.02 33.02,0 9.91,9.66 25.46,9.66 35.38,0"
             style="fill:#fff6ee;fill-opacity:1;fill-rule:nonzero;stroke:none"
             id="path38" />
        </g>
        <g
           id="g40"
           transform="translate(359.4399,438.5249)">
          <path
             d="m 0,0 0.36,-0.35 -1.19,-1.22 -0.36,0.35 c -9.25,9.01 -23.75,9.01 -33.01,0 -4.96,-4.83 -11.32,-7.24 -17.69,-7.24 -6.37,0 -12.73,2.41 -17.69,7.24 -9.26,9.01 -23.76,9.01 -33.02,0 -4.79,-4.67 -11.08,-7.24 -17.69,-7.24 -6.61,0 -12.89,2.57 -17.69,7.24 -9.26,9.01 -23.76,9.01 -33.01,0 -9.93,-9.66 -25.47,-9.66 -35.39,0 -9.25,9.01 -23.75,9.01 -33.01,0 -9.92,-9.66 -25.46,-9.66 -35.39,0 -9.25,9.01 -23.75,9.01 -33.01,0 -9.92,-9.66 -25.46,-9.66 -35.38,0 -9.26,9.01 -23.76,9.01 -33.02,0 l -0.35,-0.35 -1.19,1.22 0.36,0.35 c 9.92,9.66 25.46,9.66 35.38,0 9.26,-9.01 23.76,-9.01 33.02,0 9.92,9.66 25.46,9.66 35.38,0 9.26,-9.01 23.76,-9.01 33.01,0 9.92,9.66 25.47,9.66 35.39,0 9.25,-9.01 23.76,-9.01 33.01,0 9.92,9.66 25.47,9.66 35.39,0 9.25,-9.01 23.75,-9.01 33.01,0 9.92,9.66 25.46,9.66 35.38,0 9.26,-9.01 23.76,-9.01 33.02,0 9.91,9.66 25.46,9.66 35.38,0"
             style="fill:#fff6ee;fill-opacity:1;fill-rule:nonzero;stroke:none"
             id="path42" />
        </g>
        <g
           id="g44"
           transform="translate(-17.1001,497.4551)">
          <path
             d="m 0,0 -1.19,1.22 0.36,0.35 c 9.92,9.65 25.46,9.66 35.38,0 9.26,-9.02 23.76,-9.02 33.02,0 9.92,9.65 25.46,9.65 35.38,0 9.26,-9.02 23.76,-9.02 33.01,0 9.92,9.65 25.47,9.65 35.39,0 9.25,-9.02 23.76,-9.02 33.01,0 9.92,9.66 25.47,9.66 35.39,0 9.25,-9.02 23.75,-9.02 33.01,0 9.92,9.66 25.46,9.66 35.38,0 9.26,-9.02 23.76,-9.02 33.02,0 9.91,9.66 25.46,9.66 35.38,0 L 376.9,1.22 375.71,0 375.35,0.35 c -9.25,9.01 -23.75,9.01 -33.01,0 -9.92,-9.66 -25.46,-9.66 -35.38,0 -9.26,9.01 -23.76,9.01 -33.02,0 -4.79,-4.68 -11.08,-7.25 -17.69,-7.25 -6.61,0 -12.89,2.57 -17.69,7.25 -9.26,9.01 -23.76,9.01 -33.01,0 -4.96,-4.83 -11.33,-7.25 -17.7,-7.25 -6.36,0 -12.73,2.42 -17.69,7.25 -9.25,9.01 -23.75,9.01 -33.01,0 -9.92,-9.66 -25.46,-9.66 -35.39,0 -9.25,9.01 -23.75,9.01 -33.01,0 -9.92,-9.66 -25.46,-9.66 -35.38,0 -9.26,9.01 -23.76,9.01 -33.02,0 z"
             style="fill:#fff6ee;fill-opacity:1;fill-rule:nonzero;stroke:none"
             id="path46" />
        </g>
        <g
           id="g48"
           transform="translate(359.4399,478.855)">
          <path
             d="m 0,0 0.36,-0.35 -1.19,-1.22 -0.36,0.35 c -9.25,9.01 -23.75,9.01 -33.01,0 -9.92,-9.66 -25.46,-9.66 -35.38,0 -9.26,9.01 -23.76,9.01 -33.02,0 -4.79,-4.67 -11.08,-7.24 -17.69,-7.24 -6.61,0 -12.89,2.57 -17.69,7.24 -9.26,9.01 -23.76,9.01 -33.01,0 -4.96,-4.83 -11.33,-7.24 -17.7,-7.24 -6.36,0 -12.73,2.41 -17.69,7.24 -9.25,9.01 -23.75,9.01 -33.01,0 -9.92,-9.66 -25.47,-9.66 -35.39,0 -9.25,9.01 -23.75,9.01 -33.01,0 -9.92,-9.66 -25.46,-9.66 -35.38,0 -9.26,9.01 -23.76,9.01 -33.02,0 l -0.35,-0.35 -1.19,1.22 0.36,0.35 c 9.92,9.66 25.46,9.66 35.38,0 9.26,-9.01 23.76,-9.01 33.02,0 9.92,9.66 25.46,9.66 35.38,0 9.26,-9.01 23.76,-9.01 33.01,0 9.92,9.66 25.47,9.66 35.39,0 9.25,-9.01 23.76,-9.01 33.01,0 9.92,9.66 25.47,9.66 35.39,0 9.25,-9.01 23.75,-9.01 33.01,0 9.92,9.66 25.46,9.66 35.38,0 9.26,-9.01 23.76,-9.01 33.02,0 9.91,9.66 25.46,9.66 35.38,0"
             style="fill:#fff6ee;fill-opacity:1;fill-rule:nonzero;stroke:none"
             id="path50" />
        </g>
        <g
           id="g52"
           transform="translate(359.4399,458.6851)">
          <path
             d="m 0,0 0.36,-0.34 -1.19,-1.22 -0.36,0.35 c -9.25,9.01 -23.75,9.01 -33.01,0 -4.96,-4.83 -11.32,-7.25 -17.69,-7.25 -6.37,0 -12.73,2.42 -17.69,7.25 -9.26,9.01 -23.76,9.01 -33.02,0 -4.79,-4.67 -11.08,-7.25 -17.69,-7.25 -6.61,0 -12.89,2.57 -17.69,7.25 -9.26,9.01 -23.76,9.01 -33.01,0 -9.92,-9.66 -25.47,-9.66 -35.39,0 -9.25,9.01 -23.76,9.01 -33.01,0 -9.92,-9.66 -25.46,-9.66 -35.39,0 -9.25,9.01 -23.75,9.01 -33.01,0 -9.92,-9.66 -25.46,-9.66 -35.38,0 -9.26,9.01 -23.76,9.01 -33.02,0 l -0.35,-0.35 -1.19,1.22 0.36,0.34 c 9.92,9.67 25.46,9.67 35.38,0 9.26,-9.01 23.76,-9.01 33.02,0 9.92,9.66 25.46,9.66 35.38,0 9.26,-9.01 23.76,-9.01 33.01,0 9.92,9.67 25.47,9.67 35.39,0 9.25,-9.01 23.76,-9.01 33.01,0 9.92,9.67 25.46,9.66 35.39,0 9.25,-9.01 23.75,-9.01 33.01,0 9.92,9.67 25.46,9.66 35.38,0 9.26,-9.01 23.76,-9.01 33.02,0 9.92,9.67 25.46,9.67 35.38,0"
             style="fill:#fff6ee;fill-opacity:1;fill-rule:nonzero;stroke:none"
             id="path54" />
        </g>
        <g
           id="g56"
           transform="translate(359.4399,275.3628)">
          <path
             d="m 0,0 0.36,-0.35 -1.19,-1.22 -0.36,0.35 c -9.25,9.01 -23.75,9.01 -33.01,0 -4.96,-4.83 -11.33,-7.24 -17.69,-7.24 -6.37,0 -12.73,2.41 -17.69,7.24 -9.26,9.01 -23.76,9.01 -33.02,0 -4.79,-4.67 -11.08,-7.24 -17.69,-7.24 -6.61,0 -12.89,2.57 -17.69,7.24 -9.26,9.02 -23.76,9.02 -33.01,0 -9.92,-9.66 -25.47,-9.66 -35.39,0 -9.25,9.01 -23.76,9.01 -33.01,0 -9.92,-9.66 -25.47,-9.66 -35.39,0 -9.25,9.01 -23.75,9.01 -33.01,0 -9.92,-9.66 -25.46,-9.66 -35.38,0 -9.26,9.01 -23.76,9.01 -33.02,0 l -0.35,-0.35 -1.19,1.22 0.36,0.35 c 9.92,9.66 25.46,9.66 35.38,0 9.26,-9.01 23.76,-9.01 33.02,0 9.92,9.66 25.46,9.66 35.38,0 9.26,-9.01 23.76,-9.01 33.01,0 9.92,9.66 25.47,9.66 35.39,0 9.25,-9.01 23.76,-9.01 33.01,0 9.92,9.66 25.47,9.66 35.39,0 9.25,-9.01 23.75,-9.01 33.01,0 9.92,9.66 25.46,9.66 35.38,0 9.26,-9.01 23.76,-9.01 33.02,0 9.91,9.66 25.46,9.66 35.38,0"
             style="fill:#fff6ee;fill-opacity:1;fill-rule:nonzero;stroke:none"
             id="path58" />
        </g>
        <g
           id="g60"
           transform="translate(359.4399,295.5327)">
          <path
             d="m 0,0 0.36,-0.35 -1.19,-1.22 -0.36,0.35 c -9.25,9.01 -23.75,9.01 -33.01,0 -9.92,-9.66 -25.46,-9.66 -35.38,0 -9.26,9.01 -23.76,9.01 -33.02,0 -4.79,-4.67 -11.08,-7.25 -17.69,-7.25 -6.61,0 -12.89,2.58 -17.69,7.25 -9.26,9.01 -23.76,9.01 -33.01,0 -4.96,-4.83 -11.33,-7.25 -17.7,-7.25 -6.36,0 -12.73,2.42 -17.69,7.25 -9.25,9.01 -23.75,9.01 -33.01,0 -9.92,-9.66 -25.47,-9.66 -35.39,0 -9.25,9.01 -23.75,9.01 -33.01,0 -9.92,-9.66 -25.46,-9.66 -35.38,0 -9.26,9.01 -23.76,9.01 -33.02,0 l -0.35,-0.35 -1.19,1.22 0.36,0.35 c 9.92,9.66 25.46,9.66 35.38,0 9.26,-9.02 23.76,-9.02 33.02,0 9.92,9.65 25.46,9.65 35.38,0 9.26,-9.02 23.76,-9.01 33.01,0 9.92,9.66 25.47,9.66 35.39,0 9.25,-9.02 23.76,-9.02 33.01,0 9.92,9.66 25.47,9.66 35.39,0 9.25,-9.02 23.75,-9.02 33.01,0 9.92,9.66 25.46,9.66 35.38,0 9.26,-9.02 23.76,-9.02 33.02,0 9.91,9.66 25.46,9.66 35.38,0"
             style="fill:#fff6ee;fill-opacity:1;fill-rule:nonzero;stroke:none"
             id="path62" />
        </g>
        <g
           id="g64"
           transform="translate(359.4399,315.6929)">
          <path
             d="m 0,0 0.36,-0.35 -1.19,-1.22 -0.36,0.35 c -9.25,9.01 -23.75,9.01 -33.01,0 -4.96,-4.83 -11.32,-7.24 -17.69,-7.24 -6.37,0 -12.73,2.41 -17.69,7.24 -9.26,9.01 -23.76,9.01 -33.02,0 -4.79,-4.67 -11.08,-7.24 -17.69,-7.24 -6.61,0 -12.89,2.57 -17.69,7.24 -9.26,9.01 -23.76,9.01 -33.01,0 -9.93,-9.66 -25.47,-9.66 -35.39,0 -9.25,9.01 -23.75,9.01 -33.01,0 -9.92,-9.66 -25.46,-9.66 -35.39,0 -9.25,9.01 -23.75,9.01 -33.01,0 -9.92,-9.66 -25.46,-9.66 -35.38,0 -9.26,9.01 -23.76,9.01 -33.02,0 l -0.35,-0.35 -1.19,1.22 0.36,0.35 c 9.92,9.66 25.46,9.66 35.38,0 9.26,-9.01 23.76,-9.01 33.02,0 9.92,9.66 25.46,9.66 35.38,0 9.26,-9.01 23.76,-9.01 33.01,0 9.92,9.66 25.47,9.66 35.39,0 9.25,-9.01 23.76,-9.01 33.01,0 9.92,9.66 25.47,9.66 35.39,0 9.25,-9.01 23.75,-9.01 33.01,0 9.92,9.66 25.46,9.66 35.38,0 9.26,-9.01 23.76,-9.01 33.02,0 9.91,9.66 25.46,9.66 35.38,0"
             style="fill:#fff6ee;fill-opacity:1;fill-rule:nonzero;stroke:none"
             id="path66" />
        </g>
        <g
           id="g68"
           transform="translate(-17.1001,374.623)">
          <path
             d="m 0,0 -1.19,1.22 0.36,0.35 c 9.92,9.65 25.46,9.66 35.38,0 9.26,-9.02 23.76,-9.02 33.02,0 9.92,9.65 25.46,9.65 35.38,0 9.26,-9.02 23.76,-9.02 33.01,0 9.92,9.65 25.47,9.65 35.39,0 9.25,-9.02 23.76,-9.02 33.01,0 9.92,9.66 25.47,9.66 35.39,0 9.25,-9.02 23.75,-9.02 33.01,0 9.92,9.66 25.46,9.66 35.38,0 9.26,-9.02 23.76,-9.02 33.02,0 9.91,9.66 25.46,9.66 35.38,0 L 376.9,1.22 375.71,0 375.35,0.35 c -9.25,9.01 -23.75,9.01 -33.01,0 -9.92,-9.66 -25.46,-9.66 -35.38,0 -9.26,9.01 -23.76,9.01 -33.02,0 -4.79,-4.68 -11.08,-7.25 -17.69,-7.25 -6.61,0 -12.89,2.57 -17.69,7.25 -9.26,9.01 -23.76,9.01 -33.01,0 -4.96,-4.83 -11.33,-7.25 -17.7,-7.25 -6.36,0 -12.73,2.42 -17.69,7.25 -9.25,9.01 -23.75,9.01 -33.01,0 -9.92,-9.66 -25.46,-9.66 -35.39,0 -9.25,9.01 -23.75,9.01 -33.01,0 -9.92,-9.66 -25.46,-9.66 -35.38,0 -9.26,9.01 -23.76,9.01 -33.02,0 z"
             style="fill:#fff6ee;fill-opacity:1;fill-rule:nonzero;stroke:none"
             id="path70" />
        </g>
        <g
           id="g72"
           transform="translate(359.4399,356.0229)">
          <path
             d="m 0,0 0.36,-0.35 -1.19,-1.22 -0.36,0.35 c -9.25,9.01 -23.75,9.01 -33.01,0 -9.92,-9.66 -25.46,-9.66 -35.38,0 -9.26,9.01 -23.76,9.01 -33.02,0 -4.79,-4.67 -11.08,-7.24 -17.69,-7.24 -6.61,0 -12.89,2.57 -17.69,7.24 -9.26,9.01 -23.76,9.01 -33.01,0 -4.96,-4.83 -11.33,-7.24 -17.7,-7.24 -6.36,0 -12.73,2.41 -17.69,7.24 -9.25,9.01 -23.75,9.01 -33.01,0 -9.92,-9.66 -25.47,-9.66 -35.39,0 -9.25,9.01 -23.75,9.01 -33.01,0 -9.92,-9.66 -25.46,-9.66 -35.38,0 -9.26,9.01 -23.76,9.01 -33.02,0 l -0.35,-0.35 -1.19,1.22 0.36,0.35 c 9.92,9.66 25.46,9.66 35.38,0 9.26,-9.01 23.76,-9.01 33.02,0 9.92,9.66 25.46,9.66 35.38,0 9.26,-9.01 23.76,-9.01 33.01,0 9.92,9.66 25.47,9.66 35.39,0 9.25,-9.01 23.76,-9.01 33.01,0 9.92,9.66 25.47,9.66 35.39,0 9.25,-9.01 23.75,-9.01 33.01,0 9.92,9.66 25.46,9.66 35.38,0 9.26,-9.01 23.76,-9.01 33.02,0 9.91,9.66 25.46,9.66 35.38,0"
             style="fill:#fff6ee;fill-opacity:1;fill-rule:nonzero;stroke:none"
             id="path74" />
        </g>
        <g
           id="g76"
           transform="translate(359.4399,335.853)">
          <path
             d="m 0,0 0.36,-0.34 -1.19,-1.22 -0.36,0.35 c -9.25,9.01 -23.75,9.01 -33.01,0 -4.96,-4.83 -11.32,-7.25 -17.69,-7.25 -6.37,0 -12.73,2.42 -17.69,7.25 -9.26,9.01 -23.76,9.01 -33.02,0 -4.79,-4.67 -11.08,-7.25 -17.69,-7.25 -6.61,0 -12.89,2.57 -17.69,7.25 -9.26,9.01 -23.76,9.01 -33.01,0 -9.92,-9.66 -25.47,-9.66 -35.39,0 -9.25,9.01 -23.76,9.01 -33.01,0 -9.92,-9.66 -25.46,-9.66 -35.39,0 -9.25,9.01 -23.75,9.01 -33.01,0 -9.92,-9.66 -25.46,-9.66 -35.38,0 -9.26,9.01 -23.76,9.01 -33.02,0 l -0.35,-0.35 -1.19,1.22 0.36,0.34 c 9.92,9.67 25.46,9.67 35.38,0 9.26,-9.01 23.76,-9.01 33.02,0 9.92,9.66 25.46,9.66 35.38,0 9.26,-9.01 23.76,-9.01 33.01,0 9.92,9.67 25.47,9.67 35.39,0 9.25,-9.01 23.76,-9.01 33.01,0 9.92,9.67 25.46,9.66 35.39,0 9.25,-9.01 23.75,-9.01 33.01,0 9.92,9.67 25.46,9.66 35.38,0 9.26,-9.01 23.76,-9.01 33.02,0 9.92,9.67 25.46,9.67 35.38,0"
             style="fill:#fff6ee;fill-opacity:1;fill-rule:nonzero;stroke:none"
             id="path78" />
        </g>
      </g>
    </g>
    <g
       id="g80">
      <g
         id="g82"
         clip-path="url(#clipPath86)">
        <g
           id="g88"
           transform="translate(311.5898,81.5996)">
          <path
             d="m 0,0 c 0.66,-2.42 0.66,-4.97 -0.03,-7.39 -0.7,-2.509 -2.04,-4.79 -3.54,-6.889 -1.65,-2.311 -3.47,-4.5 -5.24,-6.721 -1.95,-2.449 -3.91,-4.899 -5.86,-7.35 -3.87,-4.86 -7.71,-9.73 -11.64,-14.53 -1.87,-2.29 -3.76,-4.58 -5.72,-6.8 -0.97,-1.08 -1.96,-2.139 -3,-3.15 -0.03,-0.02 -0.04,-0.06 -0.06,-0.09 -2.7,-3.529 -6.82,-5.97 -11.21,-6.64 -4.83,-0.74 -9.78,0.59 -13.88,3.161 -8.98,5.66 -12.81,16.5 -12.86,26.719 -0.06,9.861 3.3,19.701 9.23,27.55 6.05,8.011 14.72,13.67 24.43,16.17 4.86,1.25 9.94,1.721 14.94,1.33 5.08,-0.39 10.25,-1.59 14.76,-4.01 C -5.17,8.94 -1.38,5.03 0,0"
             style="fill:#b7dbe5;fill-opacity:1;fill-rule:nonzero;stroke:none"
             id="path90" />
        </g>
        <g
           id="g92"
           transform="translate(466.9404,-36.96)">
          <path
             d="m 0,0 c 0.284,-0.744 1.062,-4.626 -0.44,-2.72 -13.318,-51.319 -80.402,-49.136 -121.999,-39.651 -77.844,19.18 -81.568,127.196 -3.98,149.961 C -88.49,118.137 -48.49,96.443 -27.03,65.37 -11.618,47.441 2.621,24.562 0,0"
             style="fill:#caceeb;fill-opacity:1;fill-rule:nonzero;stroke:none"
             id="path94" />
        </g>
        <g
           id="g96"
           transform="translate(71.6602,343)">
          <path
             d="m 0,0 c 0.603,-48.85 -54.215,-86.197 -36.588,-136.92 17.49,-54.391 -8.288,-106.569 -69.134,-107.45 -80.284,3.097 -112.848,95.416 -101.165,164.32 7.127,53.071 20.349,114.222 68.677,144.94 29.737,20.174 69.31,16.305 97.7,-4.432 C -20.017,46.782 -0.843,25.86 0,0"
             style="fill:#fadeda;fill-opacity:1;fill-rule:nonzero;stroke:none"
             id="path98" />
        </g>
        <g
           id="g100"
           transform="translate(828.2695,57.6299)">
          <path
             d="m 0,0 c -31.761,-103.494 -136.524,-173.172 -243.271,-173.038 -74.856,-2.127 -187.01,29.57 -182.13,121.919 2.382,23.914 17.344,46.48 40.062,55.399 50.807,21.111 113.588,-14.851 159.079,23.25 37.474,32.637 36.442,88.478 65.909,126.21 32.116,39.76 95.83,36.954 130.571,2.089 C 12.251,116.532 17.208,52.301 0,0"
             style="fill:#fadeda;fill-opacity:1;fill-rule:nonzero;stroke:none"
             id="path102" />
        </g>
        <g
           id="g104"
           transform="translate(713.3594,84.5283)">
          <path
             d="m 0,0 c 0,-62.18 -50.407,-112.587 -112.587,-112.587 -62.181,0 -112.587,50.407 -112.587,112.587 0,62.18 50.406,112.587 112.587,112.587 C -50.407,112.587 0,62.18 0,0"
             style="fill:#ffe8d7;fill-opacity:1;fill-rule:nonzero;stroke:none"
             id="path106" />
        </g>
        <g
           id="g108"
           transform="translate(343.2827,95.4746)">
          <path
             d="m 0,0 c 0,-6.046 -4.901,-10.946 -10.946,-10.946 -6.046,0 -10.947,4.9 -10.947,10.946 0,6.045 4.901,10.946 10.947,10.946 C -4.901,10.946 0,6.045 0,0"
             style="fill:#b7dbe5;fill-opacity:1;fill-rule:nonzero;stroke:none"
             id="path110" />
        </g>
        <g
           id="g112"
           transform="translate(598.7969,358.1787)">
          <path
             d="m 0,0 c 0,-20.88 -16.927,-37.807 -37.807,-37.807 -20.881,0 -37.807,16.927 -37.807,37.807 0,20.88 16.926,37.807 37.807,37.807 C -16.927,37.807 0,20.88 0,0"
             style="fill:#b7dbe5;fill-opacity:1;fill-rule:nonzero;stroke:none"
             id="path114" />
        </g>
        <g
           id="g116"
           transform="translate(83.5342,259.0557)">
          <path
             d="m 0,0 c -13.372,0 -24.25,-10.878 -24.25,-24.251 0,-13.371 10.878,-24.251 24.25,-24.251 13.372,0 24.251,10.88 24.251,24.251 C 24.251,-10.878 13.372,0 0,0 m 0,-59.681 c -19.537,0 -35.431,15.894 -35.431,35.43 0,19.537 15.894,35.432 35.431,35.432 19.537,0 35.431,-15.895 35.431,-35.432 0,-19.536 -15.894,-35.43 -35.431,-35.43"
             style="fill:#f4bdc2;fill-opacity:1;fill-rule:nonzero;stroke:none"
             id="path118" />
        </g>
        <g
           id="g120"
           transform="translate(708.332,524.251)">
          <path
             d="m 0,0 c -13.371,0 -24.251,-10.879 -24.251,-24.251 0,-13.372 10.88,-24.251 24.251,-24.251 13.371,0 24.251,10.879 24.251,24.251 C 24.251,-10.879 13.371,0 0,0 m 0,-59.682 c -19.537,0 -35.43,15.894 -35.43,35.431 0,19.537 15.893,35.431 35.43,35.431 19.536,0 35.43,-15.894 35.43,-35.431 0,-19.537 -15.894,-35.431 -35.43,-35.431"
             style="fill:#f4bdc2;fill-opacity:1;fill-rule:nonzero;stroke:none"
             id="path122" />
        </g>
        <g
           id="g124"
           transform="translate(356.2344,24.251)">
          <path
             d="m 0,0 c -13.372,0 -24.251,-10.88 -24.251,-24.251 0,-13.371 10.879,-24.251 24.251,-24.251 13.372,0 24.251,10.88 24.251,24.251 C 24.251,-10.88 13.372,0 0,0 m 0,-59.681 c -19.537,0 -35.431,15.893 -35.431,35.43 0,19.537 15.894,35.43 35.431,35.43 19.537,0 35.431,-15.893 35.431,-35.43 0,-19.537 -15.894,-35.43 -35.431,-35.43"
             style="fill:#fff6ee;fill-opacity:1;fill-rule:nonzero;stroke:none"
             id="path126" />
        </g>
        <g
           id="g128"
           transform="translate(750,201.9473)">
          <path
             d="m 0,0 c -10.293,0 -18.668,-8.374 -18.668,-18.668 0,-10.293 8.375,-18.668 18.668,-18.668 10.293,0 18.668,8.375 18.668,18.668 C 18.668,-8.374 10.293,0 0,0 m 0,-45.942 c -15.039,0 -27.273,12.235 -27.273,27.274 0,15.039 12.234,27.274 27.273,27.274 15.039,0 27.273,-12.235 27.273,-27.274 0,-15.039 -12.234,-27.274 -27.273,-27.274"
             style="fill:#b7dbe5;fill-opacity:1;fill-rule:nonzero;stroke:none"
             id="path130" />
        </g>
      </g>
    </g>
    <g
       id="g132">
      <g
         id="g134"
         clip-path="url(#clipPath138)">
        <g
           id="g140"
           transform="translate(796.5098,40.5498)">
          <path
             d="m 0,0 0.36,-0.35 -1.19,-1.219 -0.359,0.349 c -9.25,9.01 -23.75,9.01 -33.011,0 -4.96,-4.83 -11.329,-7.24 -17.69,-7.24 -6.37,0 -12.73,2.41 -17.69,7.24 -9.26,9.01 -23.76,9.01 -33.02,0 -4.79,-4.67 -11.08,-7.24 -17.69,-7.24 -6.609,0 -12.89,2.57 -17.689,7.24 -9.261,9.02 -23.761,9.02 -33.011,0 -9.92,-9.66 -25.47,-9.66 -35.39,0 -9.25,9.01 -23.76,9.01 -33.01,0 -9.92,-9.66 -25.469,-9.66 -35.389,0 -9.25,9.01 -23.75,9.01 -33.011,0 -9.92,-9.66 -25.46,-9.66 -35.38,0 -9.26,9.01 -23.76,9.01 -33.019,0 l -0.351,-0.349 -1.189,1.219 0.359,0.35 c 9.92,9.66 25.46,9.66 35.38,0 9.261,-9.01 23.761,-9.01 33.02,0 9.92,9.66 25.46,9.66 35.38,0 9.26,-9.01 23.76,-9.01 33.01,0 9.92,9.66 25.471,9.66 35.391,0 9.25,-9.01 23.759,-9.01 33.009,0 9.92,9.66 25.47,9.66 35.39,0 9.25,-9.01 23.75,-9.01 33.011,0 9.92,9.66 25.46,9.66 35.38,0 9.259,-9.01 23.759,-9.01 33.019,0 9.91,9.66 25.46,9.66 35.38,0"
             style="fill:#fff6ee;fill-opacity:1;fill-rule:nonzero;stroke:none"
             id="path142" />
        </g>
        <g
           id="g144"
           transform="translate(796.5098,60.7197)">
          <path
             d="m 0,0 0.36,-0.35 -1.19,-1.219 -0.359,0.349 c -9.25,9.01 -23.75,9.01 -33.011,0 -9.92,-9.66 -25.46,-9.66 -35.38,0 -9.26,9.01 -23.76,9.01 -33.02,0 -4.79,-4.67 -11.08,-7.25 -17.69,-7.25 -6.609,0 -12.89,2.58 -17.689,7.25 -9.261,9.01 -23.761,9.01 -33.011,0 -4.96,-4.83 -11.329,-7.25 -17.699,-7.25 -6.361,0 -12.731,2.42 -17.691,7.25 -9.25,9.01 -23.75,9.01 -33.01,0 -9.92,-9.66 -25.469,-9.66 -35.389,0 -9.25,9.01 -23.75,9.01 -33.011,0 -9.92,-9.66 -25.46,-9.66 -35.38,0 -9.26,9.01 -23.76,9.01 -33.019,0 l -0.351,-0.349 -1.189,1.219 0.359,0.35 c 9.92,9.66 25.46,9.66 35.38,0 9.261,-9.02 23.761,-9.02 33.02,0 9.92,9.65 25.46,9.65 35.38,0 9.26,-9.02 23.76,-9.01 33.01,0 9.92,9.66 25.471,9.66 35.391,0 9.25,-9.02 23.759,-9.02 33.009,0 9.92,9.66 25.47,9.66 35.39,0 9.25,-9.02 23.75,-9.02 33.011,0 9.92,9.66 25.46,9.66 35.38,0 9.259,-9.02 23.759,-9.02 33.019,0 9.91,9.66 25.46,9.66 35.38,0"
             style="fill:#fff6ee;fill-opacity:1;fill-rule:nonzero;stroke:none"
             id="path146" />
        </g>
        <g
           id="g148"
           transform="translate(796.5098,80.8799)">
          <path
             d="m 0,0 0.36,-0.35 -1.19,-1.22 -0.359,0.35 c -9.25,9.01 -23.75,9.01 -33.011,0 -4.96,-4.83 -11.32,-7.24 -17.69,-7.24 -6.37,0 -12.73,2.41 -17.69,7.24 -9.26,9.01 -23.76,9.01 -33.02,0 -4.79,-4.67 -11.08,-7.24 -17.69,-7.24 -6.609,0 -12.89,2.57 -17.689,7.24 -9.261,9.01 -23.761,9.01 -33.011,0 -9.93,-9.66 -25.47,-9.66 -35.39,0 -9.25,9.01 -23.75,9.01 -33.01,0 -9.92,-9.66 -25.46,-9.66 -35.389,0 -9.25,9.01 -23.75,9.01 -33.011,0 -9.92,-9.66 -25.46,-9.66 -35.38,0 -9.26,9.01 -23.76,9.01 -33.019,0 l -0.351,-0.35 -1.189,1.22 0.359,0.35 c 9.92,9.66 25.46,9.66 35.38,0 9.261,-9.01 23.761,-9.01 33.02,0 9.92,9.66 25.46,9.66 35.38,0 9.26,-9.01 23.76,-9.01 33.01,0 9.92,9.66 25.471,9.66 35.391,0 9.25,-9.01 23.759,-9.01 33.009,0 9.92,9.66 25.47,9.66 35.39,0 9.25,-9.01 23.75,-9.01 33.011,0 9.92,9.66 25.46,9.66 35.38,0 9.259,-9.01 23.759,-9.01 33.019,0 9.91,9.66 25.46,9.66 35.38,0"
             style="fill:#fff6ee;fill-opacity:1;fill-rule:nonzero;stroke:none"
             id="path150" />
        </g>
        <g
           id="g152"
           transform="translate(419.9697,139.8096)">
          <path
             d="M 0,0 -1.189,1.221 -0.83,1.57 c 9.92,9.651 25.46,9.66 35.38,0 9.261,-9.019 23.761,-9.019 33.02,0 9.92,9.651 25.46,9.651 35.38,0 9.26,-9.019 23.76,-9.019 33.01,0 9.92,9.651 25.471,9.651 35.391,0 9.25,-9.019 23.759,-9.019 33.009,0 9.92,9.66 25.47,9.66 35.39,0 9.25,-9.019 23.75,-9.019 33.011,0 9.92,9.66 25.46,9.66 35.38,0 9.259,-9.019 23.759,-9.019 33.019,0 9.91,9.66 25.46,9.66 35.38,0 L 376.9,1.221 375.71,0 375.351,0.351 c -9.25,9.009 -23.75,9.009 -33.011,0 -9.92,-9.661 -25.46,-9.661 -35.38,0 -9.26,9.009 -23.76,9.009 -33.02,0 -4.79,-4.68 -11.08,-7.25 -17.69,-7.25 -6.609,0 -12.89,2.57 -17.689,7.25 -9.261,9.009 -23.761,9.009 -33.011,0 -4.96,-4.83 -11.329,-7.25 -17.699,-7.25 -6.361,0 -12.731,2.42 -17.691,7.25 -9.25,9.009 -23.75,9.009 -33.01,0 -9.92,-9.661 -25.46,-9.661 -35.389,0 -9.25,9.009 -23.75,9.009 -33.011,0 -9.92,-9.661 -25.46,-9.661 -35.38,0 -9.26,9.009 -23.76,9.009 -33.019,0 z"
             style="fill:#fff6ee;fill-opacity:1;fill-rule:nonzero;stroke:none"
             id="path154" />
        </g>
        <g
           id="g156"
           transform="translate(796.5098,121.21)">
          <path
             d="m 0,0 0.36,-0.35 -1.19,-1.22 -0.359,0.35 c -9.25,9.01 -23.75,9.01 -33.011,0 -9.92,-9.66 -25.46,-9.66 -35.38,0 -9.26,9.01 -23.76,9.01 -33.02,0 -4.79,-4.67 -11.08,-7.24 -17.69,-7.24 -6.609,0 -12.89,2.57 -17.689,7.24 -9.261,9.01 -23.761,9.01 -33.011,0 -4.96,-4.83 -11.329,-7.24 -17.699,-7.24 -6.361,0 -12.731,2.41 -17.691,7.24 -9.25,9.01 -23.75,9.01 -33.01,0 -9.92,-9.66 -25.469,-9.66 -35.389,0 -9.25,9.01 -23.75,9.01 -33.011,0 -9.92,-9.66 -25.46,-9.66 -35.38,0 -9.26,9.01 -23.76,9.01 -33.019,0 l -0.351,-0.35 -1.189,1.22 0.359,0.35 c 9.92,9.66 25.46,9.66 35.38,0 9.261,-9.01 23.761,-9.01 33.02,0 9.92,9.66 25.46,9.66 35.38,0 9.26,-9.01 23.76,-9.01 33.01,0 9.92,9.66 25.471,9.66 35.391,0 9.25,-9.01 23.759,-9.01 33.009,0 9.92,9.66 25.47,9.66 35.39,0 9.25,-9.01 23.75,-9.01 33.011,0 9.92,9.66 25.46,9.66 35.38,0 9.259,-9.01 23.759,-9.01 33.019,0 9.91,9.66 25.46,9.66 35.38,0"
             style="fill:#fff6ee;fill-opacity:1;fill-rule:nonzero;stroke:none"
             id="path158" />
        </g>
        <g
           id="g160"
           transform="translate(796.5098,101.04)">
          <path
             d="m 0,0 0.36,-0.34 -1.19,-1.22 -0.359,0.35 c -9.25,9.01 -23.75,9.01 -33.011,0 -4.96,-4.83 -11.32,-7.25 -17.69,-7.25 -6.37,0 -12.73,2.42 -17.69,7.25 -9.26,9.01 -23.76,9.01 -33.02,0 -4.79,-4.67 -11.08,-7.25 -17.69,-7.25 -6.609,0 -12.89,2.57 -17.689,7.25 -9.261,9.01 -23.761,9.01 -33.011,0 -9.92,-9.66 -25.47,-9.66 -35.39,0 -9.25,9.01 -23.76,9.01 -33.01,0 -9.92,-9.66 -25.46,-9.66 -35.389,0 -9.25,9.01 -23.75,9.01 -33.011,0 -9.92,-9.66 -25.46,-9.66 -35.38,0 -9.26,9.01 -23.76,9.01 -33.019,0 l -0.351,-0.35 -1.189,1.22 0.359,0.34 c 9.92,9.67 25.46,9.67 35.38,0 9.261,-9.01 23.761,-9.01 33.02,0 9.92,9.66 25.46,9.66 35.38,0 9.26,-9.01 23.76,-9.01 33.01,0 9.92,9.67 25.471,9.67 35.391,0 9.25,-9.01 23.759,-9.01 33.009,0 9.92,9.67 25.46,9.66 35.39,0 9.25,-9.01 23.75,-9.01 33.011,0 9.92,9.67 25.46,9.66 35.38,0 9.259,-9.01 23.759,-9.01 33.019,0 9.92,9.67 25.46,9.67 35.38,0"
             style="fill:#fff6ee;fill-opacity:1;fill-rule:nonzero;stroke:none"
             id="path162" />
        </g>
      </g>
    </g>
    <g
       id="g164">
      <g
         id="g166"
         clip-path="url(#clipPath170)">
        <g
           id="g172"
           transform="translate(656.0566,466.2358)">
          <path
             d="m 0,0 c -3.42,-16.88 -12.931,-31.97 -26.431,-42.62 -6.37,-5.02 -13.519,-9.03 -21.159,-11.78 -8.711,-3.13 -17.78,-4.22 -27,-4.42 -10.6,-0.22 -21.301,0.48 -31.82,-1.24 -9.71,-1.59 -18.641,-5.64 -27.021,-10.68 -16.469,-9.92 -31.309,-23.36 -50.299,-28.37 -8.96,-2.36 -18.31,-2.36 -27.09,0.74 -8.35,2.95 -15.71,8.16 -22.3,14 -14.09,12.5 -25.03,28.84 -41.86,38.04 -15.71,8.59 -34.8,10.65 -47.57,24.22 -8.79,9.35 -13.35,21.83 -14.6,34.49 -0.22,1.07 -0.42,2.15 -0.59,3.24 -2.96,19.21 1.67,39 9.74,56.43 7.49,16.18 18.709,31.16 34,40.67 15.149,9.44 34.029,13.25 51.3,7.87 15.769,-4.91 28.559,-15.96 41.84,-25.3 6.83,-4.8 13.94,-9.34 21.73,-12.43 8.489,-3.37 17.579,-4.7 26.69,-4.56 18.99,0.29 37.33,6.15 55.91,9.39 9.07,1.58 18.3,2.6 27.519,2.05 8.421,-0.51 16.681,-2.44 24.45,-5.71 C -29.41,77.65 -16.271,66.36 -8.11,52.05 0.8,36.44 3.55,17.57 0,0"
             style="fill:#b7dbe5;fill-opacity:1;fill-rule:nonzero;stroke:none"
             id="path174" />
        </g>
        <g
           id="g176"
           transform="translate(364.147,500.1523)">
          <path
             d="m 0,0 c 0,-23.184 -18.794,-41.979 -41.978,-41.979 -23.184,0 -41.979,18.795 -41.979,41.979 0,23.184 18.795,41.978 41.979,41.978 C -18.794,41.978 0,23.184 0,0"
             style="fill:#fadeda;fill-opacity:1;fill-rule:nonzero;stroke:none"
             id="path178" />
        </g>
      </g>
    </g>
    <g
       id="g180">
      <g
         id="g182"
         clip-path="url(#clipPath186)">
        <g
           id="g188"
           transform="translate(25.5483,19.9805)">
          <path
             d="m 0,0 c 0,-1.059 -0.884,-1.916 -1.974,-1.916 -1.09,0 -1.974,0.857 -1.974,1.916 0,1.058 0.884,1.916 1.974,1.916 C -0.884,1.916 0,1.058 0,0"
             style="fill:#b7dbe5;fill-opacity:1;fill-rule:nonzero;stroke:none"
             id="path190" />
        </g>
        <g
           id="g192"
           transform="translate(41.3389,19.9805)">
          <path
             d="m 0,0 c 0,-1.059 -0.883,-1.916 -1.974,-1.916 -1.09,0 -1.974,0.857 -1.974,1.916 0,1.058 0.884,1.916 1.974,1.916 C -0.883,1.916 0,1.058 0,0"
             style="fill:#b7dbe5;fill-opacity:1;fill-rule:nonzero;stroke:none"
             id="path194" />
        </g>
        <g
           id="g196"
           transform="translate(57.1299,19.9805)">
          <path
             d="m 0,0 c 0,-1.059 -0.884,-1.916 -1.974,-1.916 -1.09,0 -1.974,0.857 -1.974,1.916 0,1.058 0.884,1.916 1.974,1.916 C -0.884,1.916 0,1.058 0,0"
             style="fill:#b7dbe5;fill-opacity:1;fill-rule:nonzero;stroke:none"
             id="path198" />
        </g>
        <g
           id="g200"
           transform="translate(72.9209,19.9805)">
          <path
             d="m 0,0 c 0,-1.059 -0.884,-1.916 -1.974,-1.916 -1.09,0 -1.974,0.857 -1.974,1.916 0,1.058 0.884,1.916 1.974,1.916 C -0.884,1.916 0,1.058 0,0"
             style="fill:#b7dbe5;fill-opacity:1;fill-rule:nonzero;stroke:none"
             id="path202" />
        </g>
        <g
           id="g204"
           transform="translate(88.7114,19.9805)">
          <path
             d="m 0,0 c 0,-1.059 -0.884,-1.916 -1.974,-1.916 -1.09,0 -1.974,0.857 -1.974,1.916 0,1.058 0.884,1.916 1.974,1.916 C -0.884,1.916 0,1.058 0,0"
             style="fill:#b7dbe5;fill-opacity:1;fill-rule:nonzero;stroke:none"
             id="path206" />
        </g>
        <g
           id="g208"
           transform="translate(104.5024,19.9805)">
          <path
             d="m 0,0 c 0,-1.059 -0.884,-1.916 -1.974,-1.916 -1.09,0 -1.974,0.857 -1.974,1.916 0,1.058 0.884,1.916 1.974,1.916 C -0.884,1.916 0,1.058 0,0"
             style="fill:#b7dbe5;fill-opacity:1;fill-rule:nonzero;stroke:none"
             id="path210" />
        </g>
        <g
           id="g212"
           transform="translate(25.5483,33.2354)">
          <path
             d="m 0,0 c 0,-1.059 -0.884,-1.916 -1.974,-1.916 -1.09,0 -1.974,0.857 -1.974,1.916 0,1.059 0.884,1.916 1.974,1.916 C -0.884,1.916 0,1.059 0,0"
             style="fill:#b7dbe5;fill-opacity:1;fill-rule:nonzero;stroke:none"
             id="path214" />
        </g>
        <g
           id="g216"
           transform="translate(41.3389,33.2354)">
          <path
             d="m 0,0 c 0,-1.059 -0.883,-1.916 -1.974,-1.916 -1.09,0 -1.974,0.857 -1.974,1.916 0,1.059 0.884,1.916 1.974,1.916 C -0.883,1.916 0,1.059 0,0"
             style="fill:#b7dbe5;fill-opacity:1;fill-rule:nonzero;stroke:none"
             id="path218" />
        </g>
        <g
           id="g220"
           transform="translate(57.1299,33.2354)">
          <path
             d="m 0,0 c 0,-1.059 -0.884,-1.916 -1.974,-1.916 -1.09,0 -1.974,0.857 -1.974,1.916 0,1.059 0.884,1.916 1.974,1.916 C -0.884,1.916 0,1.059 0,0"
             style="fill:#b7dbe5;fill-opacity:1;fill-rule:nonzero;stroke:none"
             id="path222" />
        </g>
        <g
           id="g224"
           transform="translate(72.9209,33.2354)">
          <path
             d="m 0,0 c 0,-1.059 -0.884,-1.916 -1.974,-1.916 -1.09,0 -1.974,0.857 -1.974,1.916 0,1.059 0.884,1.916 1.974,1.916 C -0.884,1.916 0,1.059 0,0"
             style="fill:#b7dbe5;fill-opacity:1;fill-rule:nonzero;stroke:none"
             id="path226" />
        </g>
        <g
           id="g228"
           transform="translate(88.7114,33.2354)">
          <path
             d="m 0,0 c 0,-1.059 -0.884,-1.916 -1.974,-1.916 -1.09,0 -1.974,0.857 -1.974,1.916 0,1.059 0.884,1.916 1.974,1.916 C -0.884,1.916 0,1.059 0,0"
             style="fill:#b7dbe5;fill-opacity:1;fill-rule:nonzero;stroke:none"
             id="path230" />
        </g>
        <g
           id="g232"
           transform="translate(104.5024,33.2354)">
          <path
             d="m 0,0 c 0,-1.059 -0.884,-1.916 -1.974,-1.916 -1.09,0 -1.974,0.857 -1.974,1.916 0,1.059 0.884,1.916 1.974,1.916 C -0.884,1.916 0,1.059 0,0"
             style="fill:#b7dbe5;fill-opacity:1;fill-rule:nonzero;stroke:none"
             id="path234" />
        </g>
        <g
           id="g236"
           transform="translate(25.5483,46.4746)">
          <path
             d="m 0,0 c 0,-1.058 -0.884,-1.916 -1.974,-1.916 -1.09,0 -1.974,0.858 -1.974,1.916 0,1.059 0.884,1.916 1.974,1.916 C -0.884,1.916 0,1.059 0,0"
             style="fill:#b7dbe5;fill-opacity:1;fill-rule:nonzero;stroke:none"
             id="path238" />
        </g>
        <g
           id="g240"
           transform="translate(41.3389,46.4746)">
          <path
             d="m 0,0 c 0,-1.058 -0.883,-1.916 -1.974,-1.916 -1.09,0 -1.974,0.858 -1.974,1.916 0,1.059 0.884,1.916 1.974,1.916 C -0.883,1.916 0,1.059 0,0"
             style="fill:#b7dbe5;fill-opacity:1;fill-rule:nonzero;stroke:none"
             id="path242" />
        </g>
        <g
           id="g244"
           transform="translate(57.1299,46.4746)">
          <path
             d="m 0,0 c 0,-1.058 -0.884,-1.916 -1.974,-1.916 -1.09,0 -1.974,0.858 -1.974,1.916 0,1.059 0.884,1.916 1.974,1.916 C -0.884,1.916 0,1.059 0,0"
             style="fill:#b7dbe5;fill-opacity:1;fill-rule:nonzero;stroke:none"
             id="path246" />
        </g>
        <g
           id="g248"
           transform="translate(72.9209,46.4746)">
          <path
             d="m 0,0 c 0,-1.058 -0.884,-1.916 -1.974,-1.916 -1.09,0 -1.974,0.858 -1.974,1.916 0,1.059 0.884,1.916 1.974,1.916 C -0.884,1.916 0,1.059 0,0"
             style="fill:#b7dbe5;fill-opacity:1;fill-rule:nonzero;stroke:none"
             id="path250" />
        </g>
        <g
           id="g252"
           transform="translate(88.7114,46.4746)">
          <path
             d="m 0,0 c 0,-1.058 -0.884,-1.916 -1.974,-1.916 -1.09,0 -1.974,0.858 -1.974,1.916 0,1.059 0.884,1.916 1.974,1.916 C -0.884,1.916 0,1.059 0,0"
             style="fill:#b7dbe5;fill-opacity:1;fill-rule:nonzero;stroke:none"
             id="path254" />
        </g>
        <g
           id="g256"
           transform="translate(104.5024,46.4746)">
          <path
             d="m 0,0 c 0,-1.058 -0.884,-1.916 -1.974,-1.916 -1.09,0 -1.974,0.858 -1.974,1.916 0,1.059 0.884,1.916 1.974,1.916 C -0.884,1.916 0,1.059 0,0"
             style="fill:#b7dbe5;fill-opacity:1;fill-rule:nonzero;stroke:none"
             id="path258" />
        </g>
        <g
           id="g260"
           transform="translate(25.5483,59.7305)">
          <path
             d="m 0,0 c 0,-1.059 -0.884,-1.916 -1.974,-1.916 -1.09,0 -1.974,0.857 -1.974,1.916 0,1.058 0.884,1.916 1.974,1.916 C -0.884,1.916 0,1.058 0,0"
             style="fill:#b7dbe5;fill-opacity:1;fill-rule:nonzero;stroke:none"
             id="path262" />
        </g>
        <g
           id="g264"
           transform="translate(41.3389,59.7305)">
          <path
             d="m 0,0 c 0,-1.059 -0.883,-1.916 -1.974,-1.916 -1.09,0 -1.974,0.857 -1.974,1.916 0,1.058 0.884,1.916 1.974,1.916 C -0.883,1.916 0,1.058 0,0"
             style="fill:#b7dbe5;fill-opacity:1;fill-rule:nonzero;stroke:none"
             id="path266" />
        </g>
        <g
           id="g268"
           transform="translate(57.1299,59.7305)">
          <path
             d="m 0,0 c 0,-1.059 -0.884,-1.916 -1.974,-1.916 -1.09,0 -1.974,0.857 -1.974,1.916 0,1.058 0.884,1.916 1.974,1.916 C -0.884,1.916 0,1.058 0,0"
             style="fill:#b7dbe5;fill-opacity:1;fill-rule:nonzero;stroke:none"
             id="path270" />
        </g>
        <g
           id="g272"
           transform="translate(72.9209,59.7305)">
          <path
             d="m 0,0 c 0,-1.059 -0.884,-1.916 -1.974,-1.916 -1.09,0 -1.974,0.857 -1.974,1.916 0,1.058 0.884,1.916 1.974,1.916 C -0.884,1.916 0,1.058 0,0"
             style="fill:#b7dbe5;fill-opacity:1;fill-rule:nonzero;stroke:none"
             id="path274" />
        </g>
        <g
           id="g276"
           transform="translate(88.7114,59.7305)">
          <path
             d="m 0,0 c 0,-1.059 -0.884,-1.916 -1.974,-1.916 -1.09,0 -1.974,0.857 -1.974,1.916 0,1.058 0.884,1.916 1.974,1.916 C -0.884,1.916 0,1.058 0,0"
             style="fill:#b7dbe5;fill-opacity:1;fill-rule:nonzero;stroke:none"
             id="path278" />
        </g>
        <g
           id="g280"
           transform="translate(104.5024,59.7305)">
          <path
             d="m 0,0 c 0,-1.059 -0.884,-1.916 -1.974,-1.916 -1.09,0 -1.974,0.857 -1.974,1.916 0,1.058 0.884,1.916 1.974,1.916 C -0.884,1.916 0,1.058 0,0"
             style="fill:#b7dbe5;fill-opacity:1;fill-rule:nonzero;stroke:none"
             id="path282" />
        </g>
        <g
           id="g284"
           transform="translate(120.4844,19.333)">
          <path
             d="m 0,0 c 0,-1.059 -0.884,-1.916 -1.974,-1.916 -1.09,0 -1.974,0.857 -1.974,1.916 0,1.059 0.884,1.916 1.974,1.916 C -0.884,1.916 0,1.059 0,0"
             style="fill:#b7dbe5;fill-opacity:1;fill-rule:nonzero;stroke:none"
             id="path286" />
        </g>
        <g
           id="g288"
           transform="translate(136.2749,19.333)">
          <path
             d="m 0,0 c 0,-1.059 -0.884,-1.916 -1.974,-1.916 -1.09,0 -1.974,0.857 -1.974,1.916 0,1.059 0.884,1.916 1.974,1.916 C -0.884,1.916 0,1.059 0,0"
             style="fill:#b7dbe5;fill-opacity:1;fill-rule:nonzero;stroke:none"
             id="path290" />
        </g>
        <g
           id="g292"
           transform="translate(152.0659,19.333)">
          <path
             d="m 0,0 c 0,-1.059 -0.884,-1.916 -1.974,-1.916 -1.09,0 -1.974,0.857 -1.974,1.916 0,1.059 0.884,1.916 1.974,1.916 C -0.884,1.916 0,1.059 0,0"
             style="fill:#b7dbe5;fill-opacity:1;fill-rule:nonzero;stroke:none"
             id="path294" />
        </g>
        <g
           id="g296"
           transform="translate(167.8564,19.333)">
          <path
             d="m 0,0 c 0,-1.059 -0.883,-1.916 -1.974,-1.916 -1.09,0 -1.974,0.857 -1.974,1.916 0,1.059 0.884,1.916 1.974,1.916 C -0.883,1.916 0,1.059 0,0"
             style="fill:#b7dbe5;fill-opacity:1;fill-rule:nonzero;stroke:none"
             id="path298" />
        </g>
        <g
           id="g300"
           transform="translate(183.6475,19.333)">
          <path
             d="m 0,0 c 0,-1.059 -0.884,-1.916 -1.974,-1.916 -1.09,0 -1.974,0.857 -1.974,1.916 0,1.059 0.884,1.916 1.974,1.916 C -0.884,1.916 0,1.059 0,0"
             style="fill:#b7dbe5;fill-opacity:1;fill-rule:nonzero;stroke:none"
             id="path302" />
        </g>
        <g
           id="g304"
           transform="translate(199.4385,19.333)">
          <path
             d="m 0,0 c 0,-1.059 -0.884,-1.916 -1.974,-1.916 -1.09,0 -1.974,0.857 -1.974,1.916 0,1.059 0.884,1.916 1.974,1.916 C -0.884,1.916 0,1.059 0,0"
             style="fill:#b7dbe5;fill-opacity:1;fill-rule:nonzero;stroke:none"
             id="path306" />
        </g>
        <g
           id="g308"
           transform="translate(120.4844,32.5879)">
          <path
             d="m 0,0 c 0,-1.058 -0.884,-1.916 -1.974,-1.916 -1.09,0 -1.974,0.858 -1.974,1.916 0,1.059 0.884,1.916 1.974,1.916 C -0.884,1.916 0,1.059 0,0"
             style="fill:#b7dbe5;fill-opacity:1;fill-rule:nonzero;stroke:none"
             id="path310" />
        </g>
        <g
           id="g312"
           transform="translate(136.2749,32.5879)">
          <path
             d="m 0,0 c 0,-1.058 -0.884,-1.916 -1.974,-1.916 -1.09,0 -1.974,0.858 -1.974,1.916 0,1.059 0.884,1.916 1.974,1.916 C -0.884,1.916 0,1.059 0,0"
             style="fill:#b7dbe5;fill-opacity:1;fill-rule:nonzero;stroke:none"
             id="path314" />
        </g>
        <g
           id="g316"
           transform="translate(152.0659,32.5879)">
          <path
             d="m 0,0 c 0,-1.058 -0.884,-1.916 -1.974,-1.916 -1.09,0 -1.974,0.858 -1.974,1.916 0,1.059 0.884,1.916 1.974,1.916 C -0.884,1.916 0,1.059 0,0"
             style="fill:#b7dbe5;fill-opacity:1;fill-rule:nonzero;stroke:none"
             id="path318" />
        </g>
        <g
           id="g320"
           transform="translate(167.8564,32.5879)">
          <path
             d="m 0,0 c 0,-1.058 -0.883,-1.916 -1.974,-1.916 -1.09,0 -1.974,0.858 -1.974,1.916 0,1.059 0.884,1.916 1.974,1.916 C -0.883,1.916 0,1.059 0,0"
             style="fill:#b7dbe5;fill-opacity:1;fill-rule:nonzero;stroke:none"
             id="path322" />
        </g>
        <g
           id="g324"
           transform="translate(183.6475,32.5879)">
          <path
             d="m 0,0 c 0,-1.058 -0.884,-1.916 -1.974,-1.916 -1.09,0 -1.974,0.858 -1.974,1.916 0,1.059 0.884,1.916 1.974,1.916 C -0.884,1.916 0,1.059 0,0"
             style="fill:#b7dbe5;fill-opacity:1;fill-rule:nonzero;stroke:none"
             id="path326" />
        </g>
        <g
           id="g328"
           transform="translate(199.4385,32.5879)">
          <path
             d="m 0,0 c 0,-1.058 -0.884,-1.916 -1.974,-1.916 -1.09,0 -1.974,0.858 -1.974,1.916 0,1.059 0.884,1.916 1.974,1.916 C -0.884,1.916 0,1.059 0,0"
             style="fill:#b7dbe5;fill-opacity:1;fill-rule:nonzero;stroke:none"
             id="path330" />
        </g>
        <g
           id="g332"
           transform="translate(120.4844,45.8281)">
          <path
             d="m 0,0 c 0,-1.059 -0.884,-1.916 -1.974,-1.916 -1.09,0 -1.974,0.857 -1.974,1.916 0,1.058 0.884,1.916 1.974,1.916 C -0.884,1.916 0,1.058 0,0"
             style="fill:#b7dbe5;fill-opacity:1;fill-rule:nonzero;stroke:none"
             id="path334" />
        </g>
        <g
           id="g336"
           transform="translate(136.2749,45.8281)">
          <path
             d="m 0,0 c 0,-1.059 -0.884,-1.916 -1.974,-1.916 -1.09,0 -1.974,0.857 -1.974,1.916 0,1.058 0.884,1.916 1.974,1.916 C -0.884,1.916 0,1.058 0,0"
             style="fill:#b7dbe5;fill-opacity:1;fill-rule:nonzero;stroke:none"
             id="path338" />
        </g>
        <g
           id="g340"
           transform="translate(152.0659,45.8281)">
          <path
             d="m 0,0 c 0,-1.059 -0.884,-1.916 -1.974,-1.916 -1.09,0 -1.974,0.857 -1.974,1.916 0,1.058 0.884,1.916 1.974,1.916 C -0.884,1.916 0,1.058 0,0"
             style="fill:#b7dbe5;fill-opacity:1;fill-rule:nonzero;stroke:none"
             id="path342" />
        </g>
        <g
           id="g344"
           transform="translate(167.8564,45.8281)">
          <path
             d="m 0,0 c 0,-1.059 -0.883,-1.916 -1.974,-1.916 -1.09,0 -1.974,0.857 -1.974,1.916 0,1.058 0.884,1.916 1.974,1.916 C -0.883,1.916 0,1.058 0,0"
             style="fill:#b7dbe5;fill-opacity:1;fill-rule:nonzero;stroke:none"
             id="path346" />
        </g>
        <g
           id="g348"
           transform="translate(183.6475,45.8281)">
          <path
             d="m 0,0 c 0,-1.059 -0.884,-1.916 -1.974,-1.916 -1.09,0 -1.974,0.857 -1.974,1.916 0,1.058 0.884,1.916 1.974,1.916 C -0.884,1.916 0,1.058 0,0"
             style="fill:#b7dbe5;fill-opacity:1;fill-rule:nonzero;stroke:none"
             id="path350" />
        </g>
        <g
           id="g352"
           transform="translate(199.4385,45.8281)">
          <path
             d="m 0,0 c 0,-1.059 -0.884,-1.916 -1.974,-1.916 -1.09,0 -1.974,0.857 -1.974,1.916 0,1.058 0.884,1.916 1.974,1.916 C -0.884,1.916 0,1.058 0,0"
             style="fill:#b7dbe5;fill-opacity:1;fill-rule:nonzero;stroke:none"
             id="path354" />
        </g>
        <g
           id="g356"
           transform="translate(120.4844,59.083)">
          <path
             d="m 0,0 c 0,-1.059 -0.884,-1.916 -1.974,-1.916 -1.09,0 -1.974,0.857 -1.974,1.916 0,1.059 0.884,1.916 1.974,1.916 C -0.884,1.916 0,1.059 0,0"
             style="fill:#b7dbe5;fill-opacity:1;fill-rule:nonzero;stroke:none"
             id="path358" />
        </g>
        <g
           id="g360"
           transform="translate(136.2749,59.083)">
          <path
             d="m 0,0 c 0,-1.059 -0.884,-1.916 -1.974,-1.916 -1.09,0 -1.974,0.857 -1.974,1.916 0,1.059 0.884,1.916 1.974,1.916 C -0.884,1.916 0,1.059 0,0"
             style="fill:#b7dbe5;fill-opacity:1;fill-rule:nonzero;stroke:none"
             id="path362" />
        </g>
        <g
           id="g364"
           transform="translate(152.0659,59.083)">
          <path
             d="m 0,0 c 0,-1.059 -0.884,-1.916 -1.974,-1.916 -1.09,0 -1.974,0.857 -1.974,1.916 0,1.059 0.884,1.916 1.974,1.916 C -0.884,1.916 0,1.059 0,0"
             style="fill:#b7dbe5;fill-opacity:1;fill-rule:nonzero;stroke:none"
             id="path366" />
        </g>
        <g
           id="g368"
           transform="translate(167.8564,59.083)">
          <path
             d="m 0,0 c 0,-1.059 -0.883,-1.916 -1.974,-1.916 -1.09,0 -1.974,0.857 -1.974,1.916 0,1.059 0.884,1.916 1.974,1.916 C -0.883,1.916 0,1.059 0,0"
             style="fill:#b7dbe5;fill-opacity:1;fill-rule:nonzero;stroke:none"
             id="path370" />
        </g>
        <g
           id="g372"
           transform="translate(183.6475,59.083)">
          <path
             d="m 0,0 c 0,-1.059 -0.884,-1.916 -1.974,-1.916 -1.09,0 -1.974,0.857 -1.974,1.916 0,1.059 0.884,1.916 1.974,1.916 C -0.884,1.916 0,1.059 0,0"
             style="fill:#b7dbe5;fill-opacity:1;fill-rule:nonzero;stroke:none"
             id="path374" />
        </g>
        <g
           id="g376"
           transform="translate(199.4385,59.083)">
          <path
             d="m 0,0 c 0,-1.059 -0.884,-1.916 -1.974,-1.916 -1.09,0 -1.974,0.857 -1.974,1.916 0,1.059 0.884,1.916 1.974,1.916 C -0.884,1.916 0,1.059 0,0"
             style="fill:#b7dbe5;fill-opacity:1;fill-rule:nonzero;stroke:none"
             id="path378" />
        </g>
        <g
           id="g380"
           transform="translate(693.8076,433.1851)">
          <path
             d="m 0,0 c -1.059,0 -1.916,0.884 -1.916,1.974 0,1.09 0.857,1.974 1.916,1.974 1.059,0 1.916,-0.884 1.916,-1.974 C 1.916,0.884 1.059,0 0,0"
             style="fill:#f4bdc2;fill-opacity:1;fill-rule:nonzero;stroke:none"
             id="path382" />
        </g>
        <g
           id="g384"
           transform="translate(693.8076,417.394)">
          <path
             d="m 0,0 c -1.059,0 -1.916,0.884 -1.916,1.974 0,1.09 0.857,1.974 1.916,1.974 1.059,0 1.916,-0.884 1.916,-1.974 C 1.916,0.884 1.059,0 0,0"
             style="fill:#f4bdc2;fill-opacity:1;fill-rule:nonzero;stroke:none"
             id="path386" />
        </g>
        <g
           id="g388"
           transform="translate(693.8076,401.6035)">
          <path
             d="m 0,0 c -1.059,0 -1.916,0.884 -1.916,1.974 0,1.09 0.857,1.974 1.916,1.974 1.059,0 1.916,-0.884 1.916,-1.974 C 1.916,0.884 1.059,0 0,0"
             style="fill:#f4bdc2;fill-opacity:1;fill-rule:nonzero;stroke:none"
             id="path390" />
        </g>
        <g
           id="g392"
           transform="translate(693.8076,385.8125)">
          <path
             d="m 0,0 c -1.059,0 -1.916,0.884 -1.916,1.974 0,1.09 0.857,1.974 1.916,1.974 1.059,0 1.916,-0.884 1.916,-1.974 C 1.916,0.884 1.059,0 0,0"
             style="fill:#f4bdc2;fill-opacity:1;fill-rule:nonzero;stroke:none"
             id="path394" />
        </g>
        <g
           id="g396"
           transform="translate(693.8076,370.0215)">
          <path
             d="m 0,0 c -1.059,0 -1.916,0.884 -1.916,1.974 0,1.09 0.857,1.974 1.916,1.974 1.059,0 1.916,-0.884 1.916,-1.974 C 1.916,0.884 1.059,0 0,0"
             style="fill:#f4bdc2;fill-opacity:1;fill-rule:nonzero;stroke:none"
             id="path398" />
        </g>
        <g
           id="g400"
           transform="translate(693.8076,354.231)">
          <path
             d="m 0,0 c -1.059,0 -1.916,0.884 -1.916,1.974 0,1.09 0.857,1.974 1.916,1.974 1.059,0 1.916,-0.884 1.916,-1.974 C 1.916,0.884 1.059,0 0,0"
             style="fill:#f4bdc2;fill-opacity:1;fill-rule:nonzero;stroke:none"
             id="path402" />
        </g>
        <g
           id="g404"
           transform="translate(707.0625,433.1851)">
          <path
             d="m 0,0 c -1.058,0 -1.916,0.884 -1.916,1.974 0,1.09 0.858,1.974 1.916,1.974 1.059,0 1.916,-0.884 1.916,-1.974 C 1.916,0.884 1.059,0 0,0"
             style="fill:#f4bdc2;fill-opacity:1;fill-rule:nonzero;stroke:none"
             id="path406" />
        </g>
        <g
           id="g408"
           transform="translate(707.0625,417.394)">
          <path
             d="m 0,0 c -1.058,0 -1.916,0.884 -1.916,1.974 0,1.09 0.858,1.974 1.916,1.974 1.059,0 1.916,-0.884 1.916,-1.974 C 1.916,0.884 1.059,0 0,0"
             style="fill:#f4bdc2;fill-opacity:1;fill-rule:nonzero;stroke:none"
             id="path410" />
        </g>
        <g
           id="g412"
           transform="translate(707.0625,401.6035)">
          <path
             d="m 0,0 c -1.058,0 -1.916,0.884 -1.916,1.974 0,1.09 0.858,1.974 1.916,1.974 1.059,0 1.916,-0.884 1.916,-1.974 C 1.916,0.884 1.059,0 0,0"
             style="fill:#f4bdc2;fill-opacity:1;fill-rule:nonzero;stroke:none"
             id="path414" />
        </g>
        <g
           id="g416"
           transform="translate(707.0625,385.8125)">
          <path
             d="m 0,0 c -1.058,0 -1.916,0.884 -1.916,1.974 0,1.09 0.858,1.974 1.916,1.974 1.059,0 1.916,-0.884 1.916,-1.974 C 1.916,0.884 1.059,0 0,0"
             style="fill:#f4bdc2;fill-opacity:1;fill-rule:nonzero;stroke:none"
             id="path418" />
        </g>
        <g
           id="g420"
           transform="translate(707.0625,370.0215)">
          <path
             d="m 0,0 c -1.058,0 -1.916,0.884 -1.916,1.974 0,1.09 0.858,1.974 1.916,1.974 1.059,0 1.916,-0.884 1.916,-1.974 C 1.916,0.884 1.059,0 0,0"
             style="fill:#f4bdc2;fill-opacity:1;fill-rule:nonzero;stroke:none"
             id="path422" />
        </g>
        <g
           id="g424"
           transform="translate(707.0625,354.231)">
          <path
             d="m 0,0 c -1.058,0 -1.916,0.884 -1.916,1.974 0,1.09 0.858,1.974 1.916,1.974 1.059,0 1.916,-0.884 1.916,-1.974 C 1.916,0.884 1.059,0 0,0"
             style="fill:#f4bdc2;fill-opacity:1;fill-rule:nonzero;stroke:none"
             id="path426" />
        </g>
        <g
           id="g428"
           transform="translate(720.3027,433.1851)">
          <path
             d="m 0,0 c -1.059,0 -1.916,0.884 -1.916,1.974 0,1.09 0.857,1.974 1.916,1.974 1.058,0 1.916,-0.884 1.916,-1.974 C 1.916,0.884 1.058,0 0,0"
             style="fill:#f4bdc2;fill-opacity:1;fill-rule:nonzero;stroke:none"
             id="path430" />
        </g>
        <g
           id="g432"
           transform="translate(720.3027,417.394)">
          <path
             d="m 0,0 c -1.059,0 -1.916,0.884 -1.916,1.974 0,1.09 0.857,1.974 1.916,1.974 1.058,0 1.916,-0.884 1.916,-1.974 C 1.916,0.884 1.058,0 0,0"
             style="fill:#f4bdc2;fill-opacity:1;fill-rule:nonzero;stroke:none"
             id="path434" />
        </g>
        <g
           id="g436"
           transform="translate(720.3027,401.6035)">
          <path
             d="m 0,0 c -1.059,0 -1.916,0.884 -1.916,1.974 0,1.09 0.857,1.974 1.916,1.974 1.058,0 1.916,-0.884 1.916,-1.974 C 1.916,0.884 1.058,0 0,0"
             style="fill:#f4bdc2;fill-opacity:1;fill-rule:nonzero;stroke:none"
             id="path438" />
        </g>
        <g
           id="g440"
           transform="translate(720.3027,385.8125)">
          <path
             d="m 0,0 c -1.059,0 -1.916,0.884 -1.916,1.974 0,1.09 0.857,1.974 1.916,1.974 1.058,0 1.916,-0.884 1.916,-1.974 C 1.916,0.884 1.058,0 0,0"
             style="fill:#f4bdc2;fill-opacity:1;fill-rule:nonzero;stroke:none"
             id="path442" />
        </g>
        <g
           id="g444"
           transform="translate(720.3027,370.0215)">
          <path
             d="m 0,0 c -1.059,0 -1.916,0.884 -1.916,1.974 0,1.09 0.857,1.974 1.916,1.974 1.058,0 1.916,-0.884 1.916,-1.974 C 1.916,0.884 1.058,0 0,0"
             style="fill:#f4bdc2;fill-opacity:1;fill-rule:nonzero;stroke:none"
             id="path446" />
        </g>
        <g
           id="g448"
           transform="translate(720.3027,354.231)">
          <path
             d="m 0,0 c -1.059,0 -1.916,0.884 -1.916,1.974 0,1.09 0.857,1.974 1.916,1.974 1.058,0 1.916,-0.884 1.916,-1.974 C 1.916,0.884 1.058,0 0,0"
             style="fill:#f4bdc2;fill-opacity:1;fill-rule:nonzero;stroke:none"
             id="path450" />
        </g>
        <g
           id="g452"
           transform="translate(733.5576,433.1851)">
          <path
             d="m 0,0 c -1.059,0 -1.916,0.884 -1.916,1.974 0,1.09 0.857,1.974 1.916,1.974 1.059,0 1.916,-0.884 1.916,-1.974 C 1.916,0.884 1.059,0 0,0"
             style="fill:#f4bdc2;fill-opacity:1;fill-rule:nonzero;stroke:none"
             id="path454" />
        </g>
        <g
           id="g456"
           transform="translate(733.5576,417.394)">
          <path
             d="m 0,0 c -1.059,0 -1.916,0.884 -1.916,1.974 0,1.09 0.857,1.974 1.916,1.974 1.059,0 1.916,-0.884 1.916,-1.974 C 1.916,0.884 1.059,0 0,0"
             style="fill:#f4bdc2;fill-opacity:1;fill-rule:nonzero;stroke:none"
             id="path458" />
        </g>
        <g
           id="g460"
           transform="translate(733.5576,401.6035)">
          <path
             d="m 0,0 c -1.059,0 -1.916,0.884 -1.916,1.974 0,1.09 0.857,1.974 1.916,1.974 1.059,0 1.916,-0.884 1.916,-1.974 C 1.916,0.884 1.059,0 0,0"
             style="fill:#f4bdc2;fill-opacity:1;fill-rule:nonzero;stroke:none"
             id="path462" />
        </g>
        <g
           id="g464"
           transform="translate(733.5576,385.8125)">
          <path
             d="m 0,0 c -1.059,0 -1.916,0.884 -1.916,1.974 0,1.09 0.857,1.974 1.916,1.974 1.059,0 1.916,-0.884 1.916,-1.974 C 1.916,0.884 1.059,0 0,0"
             style="fill:#f4bdc2;fill-opacity:1;fill-rule:nonzero;stroke:none"
             id="path466" />
        </g>
        <g
           id="g468"
           transform="translate(733.5576,370.0215)">
          <path
             d="m 0,0 c -1.059,0 -1.916,0.884 -1.916,1.974 0,1.09 0.857,1.974 1.916,1.974 1.059,0 1.916,-0.884 1.916,-1.974 C 1.916,0.884 1.059,0 0,0"
             style="fill:#f4bdc2;fill-opacity:1;fill-rule:nonzero;stroke:none"
             id="path470" />
        </g>
        <g
           id="g472"
           transform="translate(733.5576,354.231)">
          <path
             d="m 0,0 c -1.059,0 -1.916,0.884 -1.916,1.974 0,1.09 0.857,1.974 1.916,1.974 1.059,0 1.916,-0.884 1.916,-1.974 C 1.916,0.884 1.059,0 0,0"
             style="fill:#f4bdc2;fill-opacity:1;fill-rule:nonzero;stroke:none"
             id="path474" />
        </g>
        <g
           id="g476"
           transform="translate(693.1602,338.249)">
          <path
             d="m 0,0 c -1.058,0 -1.916,0.884 -1.916,1.974 0,1.09 0.858,1.974 1.916,1.974 1.059,0 1.916,-0.884 1.916,-1.974 C 1.916,0.884 1.059,0 0,0"
             style="fill:#f4bdc2;fill-opacity:1;fill-rule:nonzero;stroke:none"
             id="path478" />
        </g>
        <g
           id="g480"
           transform="translate(693.1602,322.458)">
          <path
             d="m 0,0 c -1.058,0 -1.916,0.884 -1.916,1.974 0,1.09 0.858,1.974 1.916,1.974 1.059,0 1.916,-0.884 1.916,-1.974 C 1.916,0.884 1.059,0 0,0"
             style="fill:#f4bdc2;fill-opacity:1;fill-rule:nonzero;stroke:none"
             id="path482" />
        </g>
        <g
           id="g484"
           transform="translate(693.1602,306.6675)">
          <path
             d="m 0,0 c -1.058,0 -1.916,0.884 -1.916,1.974 0,1.09 0.858,1.974 1.916,1.974 1.059,0 1.916,-0.884 1.916,-1.974 C 1.916,0.884 1.059,0 0,0"
             style="fill:#f4bdc2;fill-opacity:1;fill-rule:nonzero;stroke:none"
             id="path486" />
        </g>
        <g
           id="g488"
           transform="translate(693.1602,290.8765)">
          <path
             d="m 0,0 c -1.058,0 -1.916,0.884 -1.916,1.974 0,1.09 0.858,1.974 1.916,1.974 1.059,0 1.916,-0.884 1.916,-1.974 C 1.916,0.884 1.059,0 0,0"
             style="fill:#f4bdc2;fill-opacity:1;fill-rule:nonzero;stroke:none"
             id="path490" />
        </g>
        <g
           id="g492"
           transform="translate(693.1602,275.0859)">
          <path
             d="m 0,0 c -1.058,0 -1.916,0.884 -1.916,1.974 0,1.09 0.858,1.974 1.916,1.974 1.059,0 1.916,-0.884 1.916,-1.974 C 1.916,0.884 1.059,0 0,0"
             style="fill:#f4bdc2;fill-opacity:1;fill-rule:nonzero;stroke:none"
             id="path494" />
        </g>
        <g
           id="g496"
           transform="translate(693.1602,259.2949)">
          <path
             d="m 0,0 c -1.058,0 -1.916,0.884 -1.916,1.974 0,1.09 0.858,1.974 1.916,1.974 1.059,0 1.916,-0.884 1.916,-1.974 C 1.916,0.884 1.059,0 0,0"
             style="fill:#f4bdc2;fill-opacity:1;fill-rule:nonzero;stroke:none"
             id="path498" />
        </g>
        <g
           id="g500"
           transform="translate(706.416,338.249)">
          <path
             d="m 0,0 c -1.059,0 -1.916,0.884 -1.916,1.974 0,1.09 0.857,1.974 1.916,1.974 1.058,0 1.916,-0.884 1.916,-1.974 C 1.916,0.884 1.058,0 0,0"
             style="fill:#f4bdc2;fill-opacity:1;fill-rule:nonzero;stroke:none"
             id="path502" />
        </g>
        <g
           id="g504"
           transform="translate(706.416,322.458)">
          <path
             d="m 0,0 c -1.059,0 -1.916,0.884 -1.916,1.974 0,1.09 0.857,1.974 1.916,1.974 1.058,0 1.916,-0.884 1.916,-1.974 C 1.916,0.884 1.058,0 0,0"
             style="fill:#f4bdc2;fill-opacity:1;fill-rule:nonzero;stroke:none"
             id="path506" />
        </g>
        <g
           id="g508"
           transform="translate(706.416,306.6675)">
          <path
             d="m 0,0 c -1.059,0 -1.916,0.884 -1.916,1.974 0,1.09 0.857,1.974 1.916,1.974 1.058,0 1.916,-0.884 1.916,-1.974 C 1.916,0.884 1.058,0 0,0"
             style="fill:#f4bdc2;fill-opacity:1;fill-rule:nonzero;stroke:none"
             id="path510" />
        </g>
        <g
           id="g512"
           transform="translate(706.416,290.8765)">
          <path
             d="m 0,0 c -1.059,0 -1.916,0.884 -1.916,1.974 0,1.09 0.857,1.974 1.916,1.974 1.058,0 1.916,-0.884 1.916,-1.974 C 1.916,0.884 1.058,0 0,0"
             style="fill:#f4bdc2;fill-opacity:1;fill-rule:nonzero;stroke:none"
             id="path514" />
        </g>
        <g
           id="g516"
           transform="translate(706.416,275.0859)">
          <path
             d="m 0,0 c -1.059,0 -1.916,0.884 -1.916,1.974 0,1.09 0.857,1.974 1.916,1.974 1.058,0 1.916,-0.884 1.916,-1.974 C 1.916,0.884 1.058,0 0,0"
             style="fill:#f4bdc2;fill-opacity:1;fill-rule:nonzero;stroke:none"
             id="path518" />
        </g>
        <g
           id="g520"
           transform="translate(706.416,259.2949)">
          <path
             d="m 0,0 c -1.059,0 -1.916,0.884 -1.916,1.974 0,1.09 0.857,1.974 1.916,1.974 1.058,0 1.916,-0.884 1.916,-1.974 C 1.916,0.884 1.058,0 0,0"
             style="fill:#f4bdc2;fill-opacity:1;fill-rule:nonzero;stroke:none"
             id="path522" />
        </g>
        <g
           id="g524"
           transform="translate(719.6553,338.249)">
          <path
             d="m 0,0 c -1.059,0 -1.916,0.884 -1.916,1.974 0,1.09 0.857,1.974 1.916,1.974 1.059,0 1.916,-0.884 1.916,-1.974 C 1.916,0.884 1.059,0 0,0"
             style="fill:#f4bdc2;fill-opacity:1;fill-rule:nonzero;stroke:none"
             id="path526" />
        </g>
        <g
           id="g528"
           transform="translate(719.6553,322.458)">
          <path
             d="m 0,0 c -1.059,0 -1.916,0.884 -1.916,1.974 0,1.09 0.857,1.974 1.916,1.974 1.059,0 1.916,-0.884 1.916,-1.974 C 1.916,0.884 1.059,0 0,0"
             style="fill:#f4bdc2;fill-opacity:1;fill-rule:nonzero;stroke:none"
             id="path530" />
        </g>
        <g
           id="g532"
           transform="translate(719.6553,306.6675)">
          <path
             d="m 0,0 c -1.059,0 -1.916,0.884 -1.916,1.974 0,1.09 0.857,1.974 1.916,1.974 1.059,0 1.916,-0.884 1.916,-1.974 C 1.916,0.884 1.059,0 0,0"
             style="fill:#f4bdc2;fill-opacity:1;fill-rule:nonzero;stroke:none"
             id="path534" />
        </g>
        <g
           id="g536"
           transform="translate(719.6553,290.8765)">
          <path
             d="m 0,0 c -1.059,0 -1.916,0.884 -1.916,1.974 0,1.09 0.857,1.974 1.916,1.974 1.059,0 1.916,-0.884 1.916,-1.974 C 1.916,0.884 1.059,0 0,0"
             style="fill:#f4bdc2;fill-opacity:1;fill-rule:nonzero;stroke:none"
             id="path538" />
        </g>
        <g
           id="g540"
           transform="translate(719.6553,275.0859)">
          <path
             d="m 0,0 c -1.059,0 -1.916,0.884 -1.916,1.974 0,1.09 0.857,1.974 1.916,1.974 1.059,0 1.916,-0.884 1.916,-1.974 C 1.916,0.884 1.059,0 0,0"
             style="fill:#f4bdc2;fill-opacity:1;fill-rule:nonzero;stroke:none"
             id="path542" />
        </g>
        <g
           id="g544"
           transform="translate(719.6553,259.2949)">
          <path
             d="m 0,0 c -1.059,0 -1.916,0.884 -1.916,1.974 0,1.09 0.857,1.974 1.916,1.974 1.059,0 1.916,-0.884 1.916,-1.974 C 1.916,0.884 1.059,0 0,0"
             style="fill:#f4bdc2;fill-opacity:1;fill-rule:nonzero;stroke:none"
             id="path546" />
        </g>
        <g
           id="g548"
           transform="translate(732.9102,338.249)">
          <path
             d="m 0,0 c -1.058,0 -1.916,0.884 -1.916,1.974 0,1.09 0.858,1.974 1.916,1.974 1.059,0 1.916,-0.884 1.916,-1.974 C 1.916,0.884 1.059,0 0,0"
             style="fill:#f4bdc2;fill-opacity:1;fill-rule:nonzero;stroke:none"
             id="path550" />
        </g>
        <g
           id="g552"
           transform="translate(732.9102,322.458)">
          <path
             d="m 0,0 c -1.058,0 -1.916,0.884 -1.916,1.974 0,1.09 0.858,1.974 1.916,1.974 1.059,0 1.916,-0.884 1.916,-1.974 C 1.916,0.884 1.059,0 0,0"
             style="fill:#f4bdc2;fill-opacity:1;fill-rule:nonzero;stroke:none"
             id="path554" />
        </g>
        <g
           id="g556"
           transform="translate(732.9102,306.6675)">
          <path
             d="m 0,0 c -1.058,0 -1.916,0.884 -1.916,1.974 0,1.09 0.858,1.974 1.916,1.974 1.059,0 1.916,-0.884 1.916,-1.974 C 1.916,0.884 1.059,0 0,0"
             style="fill:#f4bdc2;fill-opacity:1;fill-rule:nonzero;stroke:none"
             id="path558" />
        </g>
        <g
           id="g560"
           transform="translate(732.9102,290.8765)">
          <path
             d="m 0,0 c -1.058,0 -1.916,0.884 -1.916,1.974 0,1.09 0.858,1.974 1.916,1.974 1.059,0 1.916,-0.884 1.916,-1.974 C 1.916,0.884 1.059,0 0,0"
             style="fill:#f4bdc2;fill-opacity:1;fill-rule:nonzero;stroke:none"
             id="path562" />
        </g>
        <g
           id="g564"
           transform="translate(732.9102,275.0859)">
          <path
             d="m 0,0 c -1.058,0 -1.916,0.884 -1.916,1.974 0,1.09 0.858,1.974 1.916,1.974 1.059,0 1.916,-0.884 1.916,-1.974 C 1.916,0.884 1.059,0 0,0"
             style="fill:#f4bdc2;fill-opacity:1;fill-rule:nonzero;stroke:none"
             id="path566" />
        </g>
        <g
           id="g568"
           transform="translate(732.9102,259.2949)">
          <path
             d="m 0,0 c -1.058,0 -1.916,0.884 -1.916,1.974 0,1.09 0.858,1.974 1.916,1.974 1.059,0 1.916,-0.884 1.916,-1.974 C 1.916,0.884 1.059,0 0,0"
             style="fill:#f4bdc2;fill-opacity:1;fill-rule:nonzero;stroke:none"
             id="path570" />
        </g>
        <g
           id="g572"
           transform="translate(523.5,478.9199)">
          <path
             d="m 0,0 h -7.29 v -7.3 h -5.9 V 0 h -7.29 v 5.89 h 7.29 v 7.29 h 5.9 V 5.89 H 0 Z"
             style="fill:#fff6ee;fill-opacity:1;fill-rule:nonzero;stroke:none"
             id="path574" />
        </g>
        <g
           id="g576"
           transform="translate(539.2998,478.9199)">
          <path
             d="M 0,0 H -7.3 V 5.89 H 0 v 7.29 H 5.9 V 5.89 h 7.29 V 0 H 5.9 V -7.3 H 0 Z"
             style="fill:#fff6ee;fill-opacity:1;fill-rule:nonzero;stroke:none"
             id="path578" />
        </g>
        <g
           id="g580"
           transform="translate(559.6904,461.2002)">
          <path
             d="M 0,0 H 7.29 V -5.9 H 0 v -7.3 h -5.9 v 7.3 h -7.29 V 0 H -5.9 V 7.29 H 0 Z"
             style="fill:#fff6ee;fill-opacity:1;fill-rule:nonzero;stroke:none"
             id="path582" />
        </g>
        <g
           id="g584"
           transform="translate(581.4805,484.8101)">
          <path
             d="m 0,0 v -5.89 h -7.301 v -7.3 H -13.2 v 7.3 h -7.29 V 0 h 7.29 v 7.29 h 5.899 V 0 Z"
             style="fill:#fff6ee;fill-opacity:1;fill-rule:nonzero;stroke:none"
             id="path586" />
        </g>
        <g
           id="g588"
           transform="translate(538,455.2998)">
          <path
             d="m 0,0 h -7.3 v -7.3 h -5.9 V 0 h -7.29 v 5.9 h 7.29 v 7.29 h 5.9 V 5.9 l 7.3,0 z"
             style="fill:#fff6ee;fill-opacity:1;fill-rule:nonzero;stroke:none"
             id="path590" />
        </g>
        <g
           id="g592"
           transform="translate(545.2002,439.6499)">
          <path
             d="M 0,0 H 7.29 V -5.9 H 0 v -7.3 h -5.9 v 7.3 h -7.3 V 0 h 7.3 V 7.29 H 0 Z"
             style="fill:#fff6ee;fill-opacity:1;fill-rule:nonzero;stroke:none"
             id="path594" />
        </g>
        <g
           id="g596"
           transform="translate(71.9321,89.8037)">
          <path
             d="m 0,0 h 7.29 v 7.3 h 5.9 V 0 h 7.29 v -5.89 h -7.29 v -7.29 h -5.9 v 7.29 H 0 Z"
             style="fill:#f4bdc2;fill-opacity:1;fill-rule:nonzero;stroke:none"
             id="path598" />
        </g>
        <g
           id="g600"
           transform="translate(56.1323,89.8037)">
          <path
             d="M 0,0 H 7.3 V -5.89 H 0 v -7.29 h -5.9 v 7.29 h -7.29 V 0 H -5.9 V 7.3 H 0 Z"
             style="fill:#f4bdc2;fill-opacity:1;fill-rule:nonzero;stroke:none"
             id="path602" />
        </g>
        <g
           id="g604"
           transform="translate(35.7422,107.5234)">
          <path
             d="M 0,0 H -7.29 V 5.9 H 0 v 7.3 H 5.9 V 5.9 h 7.29 V 0 H 5.9 V -7.29 H 0 Z"
             style="fill:#f4bdc2;fill-opacity:1;fill-rule:nonzero;stroke:none"
             id="path606" />
        </g>
        <g
           id="g608"
           transform="translate(13.9521,83.9141)">
          <path
             d="m 0,0 v 5.89 h 7.3 v 7.299 h 5.9 V 5.89 h 7.29 V 0 H 13.2 V -7.29 H 7.3 L 7.3,0 Z"
             style="fill:#f4bdc2;fill-opacity:1;fill-rule:nonzero;stroke:none"
             id="path610" />
        </g>
        <g
           id="g612"
           transform="translate(57.4321,113.4238)">
          <path
             d="m 0,0 h 7.3 v 7.3 h 5.9 V 0 h 7.29 V -5.9 H 13.2 v -7.29 H 7.3 V -5.9 H 0 Z"
             style="fill:#f4bdc2;fill-opacity:1;fill-rule:nonzero;stroke:none"
             id="path614" />
        </g>
        <g
           id="g616"
           transform="translate(50.2319,129.0732)">
          <path
             d="M 0,0 H -7.29 V 5.9 H 0 v 7.3 H 5.9 V 5.9 h 7.3 V 0 H 5.9 V -7.29 H 0 Z"
             style="fill:#f4bdc2;fill-opacity:1;fill-rule:nonzero;stroke:none"
             id="path618" />
        </g>
      </g>
    </g>
  </g>
</svg>
