<?xml version="1.0" ?><!-- Uploaded to: SVG Repo, www.svgrepo.com, Generator: SVG Repo Mixer Tools -->
<svg fill="#292D32" width="24" height="24" viewBox="0 0 24 24" id="Layer_2" version="1.1" xml:space="preserve" xmlns="http://www.w3.org/2000/svg" xmlns:xlink="http://www.w3.org/1999/xlink"><path d="M18.494,3H5.506C4.124,3,3,4.124,3,5.506v0.925c0,0.828,0.409,1.558,1.03,2.015C3.409,8.902,3,9.632,3,10.46v0.925  c0,0.828,0.409,1.558,1.03,2.015C3.409,13.856,3,14.586,3,15.414v0.925c0,1.382,1.124,2.506,2.506,2.506H11.5V20h-8  C3.224,20,3,20.224,3,20.5S3.224,21,3.5,21h17c0.276,0,0.5-0.224,0.5-0.5S20.776,20,20.5,20h-8v-1.155h5.994  c1.382,0,2.506-1.124,2.506-2.506v-0.925c0-0.828-0.409-1.558-1.03-2.015c0.621-0.456,1.03-1.186,1.03-2.015V10.46  c0-0.828-0.409-1.558-1.03-2.015C20.591,7.989,21,7.259,21,6.431V5.506C21,4.124,19.876,3,18.494,3z M20,16.339  c0,0.831-0.676,1.506-1.506,1.506H5.506C4.676,17.845,4,17.169,4,16.339v-0.925c0-0.831,0.676-1.506,1.506-1.506h12.988  c0.83,0,1.506,0.675,1.506,1.506V16.339z M20,11.385c0,0.831-0.676,1.506-1.506,1.506H5.506C4.676,12.891,4,12.215,4,11.385V10.46  c0-0.831,0.676-1.506,1.506-1.506h12.988c0.83,0,1.506,0.675,1.506,1.506V11.385z M20,6.431c0,0.831-0.676,1.506-1.506,1.506H5.506  C4.676,7.937,4,7.261,4,6.431V5.506C4,4.675,4.676,4,5.506,4h12.988C19.324,4,20,4.675,20,5.506V6.431z"/>
    <path d="M7.063,5.5H6C5.724,5.5,5.5,5.724,5.5,6S5.724,6.5,6,6.5h1.063c0.276,0,0.5-0.224,0.5-0.5S7.339,5.5,7.063,5.5z" />
    <path d="M10.208,5.5H8.271c-0.276,0-0.5,0.224-0.5,0.5s0.224,0.5,0.5,0.5h1.938c0.276,0,0.5-0.224,0.5-0.5S10.484,5.5,10.208,5.5z" />
    <path d="M7.063,10.422H6c-0.276,0-0.5,0.224-0.5,0.5s0.224,0.5,0.5,0.5h1.063c0.276,0,0.5-0.224,0.5-0.5S7.339,10.422,7.063,10.422z  " />
    <path d="M10.208,10.422H8.271c-0.276,0-0.5,0.224-0.5,0.5s0.224,0.5,0.5,0.5h1.938c0.276,0,0.5-0.224,0.5-0.5  S10.484,10.422,10.208,10.422z" />
    <path d="M7.063,15.345H6c-0.276,0-0.5,0.224-0.5,0.5s0.224,0.5,0.5,0.5h1.063c0.276,0,0.5-0.224,0.5-0.5S7.339,15.345,7.063,15.345z  " />
    <path d="M10.208,15.345H8.271c-0.276,0-0.5,0.224-0.5,0.5s0.224,0.5,0.5,0.5h1.938c0.276,0,0.5-0.224,0.5-0.5  S10.484,15.345,10.208,15.345z" /></svg>