<svg xmlns="http://www.w3.org/2000/svg" width="110" height="110" viewBox="0 0 110 110">
    <defs>
        <style>.a{fill:#fff;}.b{fill:#f3f3f3;}</style>
    </defs>
    <g transform="translate(-40 -106)">
        <circle class="a" cx="55" cy="55" r="55" transform="translate(40 106)" />
        <path class="b"
            d="M1329.053,1643.832a56.494,56.494,0,0,1-.145-6.017c1.015-.58,4.64-4.06,4.93-6.96.8-.073,2.1-.87,2.465-4.06a2.959,2.959,0,0,0-1.088-2.973c1.3-3.988,1.885-16.457-7.25-17.69-.943-1.595-3.335-2.465-6.452-2.465-12.47.218-16.168,9.57-13.413,20.228a2.887,2.887,0,0,0-1.087,2.973c.363,3.19,1.667,3.988,2.465,4.06.29,2.972,3.915,6.453,4.93,6.96a56.9,56.9,0,0,1-.145,6.017c-2.465,6.67-18.633,3.19-19.43,17.763h53.65C1348.048,1646.877,1331.518,1650.575,1329.053,1643.832Z"
            transform="translate(-1226.833 -1471.667)" />
    </g>
</svg>